#!OML:ASF F:\VICON\USERDATA\INSTALL\rory3\rory3.ASF
:FULLY-SPECIFIED
:DEGREES
435
root 3.33383 18.7891 -3.87551 80.3454 -32.471 -51.9286
lowerback -10.0869 9.12054 9.1875
upperback -16.3947 11.7824 2.08782
thorax -11.1336 4.85664 -2.46495
lowerneck -12.6956 9.49435 6.30899
upperneck 20.1847 10.3774 5.98841
head 8.41433 5.92518 2.11566
rclavicle 2.94201e-014 -1.27222e-014
rhumerus 52.3689 -56.9863 -43.1622
rradius 14.7412
rwrist 38.4228
rhand -1.52639 0.539842
rfingers 7.12502
rthumb 24.1276 -27.9629
lclavicle 2.94201e-014 -1.27222e-014
lhumerus -20.6471 13.0775 -2.86705
lradius 19.7158
lwrist -41.8407
lhand -4.73365 30.9169
lfingers 7.12502
lthumb 21.0493 59.7945
rfemur 191.921 -171.859 -168.444
rtibia 45.7145
rfoot 51.0021 -22.9654
rtoes 11.1168
lfemur -57.6265 18.9449 15.7996
ltibia 37.1171
lfoot -70.7095 11.5498
ltoes 52.6923
436
root 3.36421 18.7517 -3.8942 79.5912 -33.419 -51.2944
lowerback -9.64319 9.07341 8.82719
upperback -16.3638 11.7915 1.94423
thorax -11.3693 4.87834 -2.50473
lowerneck -11.4446 9.21703 5.97991
upperneck 20.8629 10.1951 5.70182
head 8.41308 5.78403 2.00704
rclavicle -2.38542e-015 2.8625e-014
rhumerus 55.493 -57.2422 -46.8412
rradius 14.2767
rwrist 41.3138
rhand -1.64976 1.2881
rfingers 7.12502
rthumb 24.0093 -27.2303
lclavicle -2.38542e-015 2.8625e-014
lhumerus -20.5988 13.1091 -1.90578
lradius 19.3498
lwrist -42.6964
lhand -5.34183 30.672
lfingers 7.12502
lthumb 20.4649 59.6135
rfemur 191.647 -171.543 -169.227
rtibia 45.3845
rfoot 50.7722 -23.952
rtoes 13.6094
lfemur -58.006 18.1301 14.5338
ltibia 37.1112
lfoot -71.5707 17.2143
ltoes 50.5774
437
root 3.38897 18.7043 -3.92398 79.0226 -33.8129 -50.8196
lowerback -9.34222 9.03383 8.84264
upperback -16.2396 11.7764 1.91074
thorax -11.3767 4.86778 -2.58625
lowerneck -11.3609 9.01157 6.25357
upperneck 22.1902 9.94628 5.05571
head 8.90529 5.63404 1.77713
rclavicle -8.5875e-014 1.17681e-013
rhumerus 57.2296 -57.0289 -48.9476
rradius 13.9515
rwrist 42.9168
rhand -1.80655 1.78485
rfingers 7.12502
rthumb 23.8589 -26.7533
lclavicle -8.5875e-014 1.17681e-013
lhumerus -20.2787 13.3412 -0.98847
lradius 18.4889
lwrist -43.1597
lhand -6.42983 29.884
lfingers 7.12502
lthumb 19.4191 58.9343
rfemur 191.3 -171.577 -169.086
rtibia 44.9251
rfoot 50.4965 -25.3858
rtoes 16.1592
lfemur -59.9243 22.009 9.99534
ltibia 37.3133
lfoot -66.3539 24.8598
ltoes 47.8049
438
root 3.41379 18.6489 -3.95003 78.5612 -33.998 -50.3484
lowerback -9.14235 9.06173 8.92851
upperback -16.0976 11.8379 1.8834
thorax -11.2882 4.8965 -2.6757
lowerneck -12.225 8.79207 6.97654
upperneck 24.0737 9.56984 4.11086
head 9.82289 5.43545 1.42851
rclavicle 1.66979e-014 -3.18055e-014
rhumerus 57.0582 -56.3918 -48.6728
rradius 13.6641
rwrist 43.1408
rhand -2.15675 1.78958
rfingers 7.12502
rthumb 23.523 -26.7921
lclavicle 1.66979e-014 -3.18055e-014
lhumerus -20.5869 12.8406 0.353577
lradius 19.599
lwrist -42.2261
lhand -6.02502 29.9291
lfingers 7.12502
lthumb 19.8083 58.9397
rfemur 190.808 -171.956 -168.441
rtibia 44.4503
rfoot 50.0083 -27.4473
rtoes 18.8333
lfemur -62.2403 25.368 5.62681
ltibia 37.6254
lfoot -60.5026 31.6288
ltoes 43.3025
439
root 3.44532 18.5776 -3.97133 77.8336 -34.3734 -49.7516
lowerback -8.78402 9.05379 9.04812
upperback -15.841 11.8619 1.76773
thorax -11.1245 4.90373 -2.89213
lowerneck -12.704 8.49628 7.11327
upperneck 25.2921 9.14292 3.71703
head 10.3781 5.21473 1.28731
rclavicle 9.54166e-015 1.59028e-014
rhumerus 59.9346 -56.657 -51.9824
rradius 13.3085
rwrist 45.2745
rhand -2.23433 2.13414
rfingers 7.12502
rthumb 23.4486 -26.457
lclavicle 9.54166e-015 1.59028e-014
lhumerus -20.6154 12.7472 1.54476
lradius 20.1085
lwrist -41.2838
lhand -5.61394 30.644
lfingers 7.12502
lthumb 20.2034 59.6134
rfemur 190.511 -172.091 -168.293
rtibia 44.0233
rfoot 49.7739 -28.0982
rtoes 19.9529
lfemur -64.4089 27.8635 1.35897
ltibia 37.938
lfoot -55.2497 36.1264
ltoes 38.3283
440
root 3.47919 18.5089 -3.99487 76.7044 -35.5245 -48.8698
lowerback -8.09545 8.92063 8.43965
upperback -15.5127 11.7709 1.52789
thorax -11.1658 4.91726 -2.92672
lowerneck -12.4411 8.18214 6.59713
upperneck 25.9287 8.82516 3.70538
head 10.5235 5.02137 1.32861
rclavicle -4.45278e-014 6.04305e-014
rhumerus 63.9994 -56.9167 -56.77
rradius 13.1119
rwrist 48.0144
rhand -2.07084 2.43374
rfingers 7.12502
rthumb 23.6054 -26.1373
lclavicle -4.45278e-014 6.04305e-014
lhumerus -20.6606 13.5363 2.49137
lradius 20.1546
lwrist -41.3073
lhand -5.6623 30.5705
lfingers 7.12502
lthumb 20.157 59.5448
rfemur 190.406 -172.205 -169.118
rtibia 43.6504
rfoot 49.3463 -28.6328
rtoes 21.0956
lfemur -66.1716 29.556 -3.38144
ltibia 38.2576
lfoot -51.4532 38.2827
ltoes 34.671
441
root 3.51352 18.4311 -4.01543 75.8522 -36.3835 -48.0718
lowerback -7.63129 8.86177 8.05796
upperback -15.2679 11.7417 1.32787
thorax -11.1516 4.93952 -2.99986
lowerneck -12.0819 7.82705 5.98065
upperneck 26.5415 8.45096 3.78953
head 10.633 4.80134 1.40731
rclavicle -5.56597e-014 -6.36111e-015
rhumerus 65.9218 -56.5131 -59.0945
rradius 13.1071
rwrist 48.9754
rhand -2.14934 2.60651
rfingers 7.12502
rthumb 23.5301 -25.9742
lclavicle -5.56597e-014 -6.36111e-015
lhumerus -20.6347 14.4817 3.46427
lradius 20.064
lwrist -41.482
lhand -6.3143 29.9104
lfingers 7.12502
lthumb 19.5302 58.9495
rfemur 190.031 -172.61 -169.39
rtibia 43.2504
rfoot 48.6483 -29.7341
rtoes 22.4624
lfemur -68.0928 30.9005 -7.564
ltibia 38.6575
lfoot -48.9726 39.4507
ltoes 31.9075
442
root 3.54755 18.3311 -4.03587 75.3019 -36.4141 -47.495
lowerback -7.43031 8.90849 8.58743
upperback -15.0435 11.8083 1.20473
thorax -10.8679 4.92913 -3.40421
lowerneck -11.7538 7.41376 5.41926
upperneck 26.9115 7.95585 3.96133
head 10.6607 4.53978 1.48791
rclavicle -2.46493e-014 -3.49861e-014
rhumerus 66.9189 -56.054 -60.3169
rradius 13.0972
rwrist 49.1057
rhand -2.32236 2.9987
rfingers 7.12502
rthumb 23.3642 -25.6032
lclavicle -2.46493e-014 -3.49861e-014
lhumerus -20.3071 15.8349 4.42693
lradius 19.7701
lwrist -41.8663
lhand -7.19217 29.4392
lfingers 7.12502
lthumb 18.686 58.5617
rfemur 189.505 -173.09 -168.673
rtibia 42.7579
rfoot 47.8316 -30.6404
rtoes 22.8642
lfemur -70.2472 32.0658 -10.8037
ltibia 39.0884
lfoot -47.3199 39.6882
ltoes 30.2505
443
root 3.58157 18.2147 -4.06822 74.5757 -36.0952 -47.0393
lowerback -7.0271 8.92918 9.46922
upperback -14.7129 11.8738 1.25601
thorax -10.5588 4.8972 -3.82593
lowerneck -11.4051 7.0632 5.00177
upperneck 27.0404 7.57227 3.9456
head 10.6147 4.32019 1.48728
rclavicle -1.23246e-013 -9.22361e-014
rhumerus 66.8792 -55.3318 -60.1533
rradius 13.0925
rwrist 48.1648
rhand -2.38122 2.93444
rfingers 7.12502
rthumb 23.3077 -25.6747
lclavicle -1.23246e-013 -9.22361e-014
lhumerus -19.9465 17.0389 5.53532
lradius 19.4674
lwrist -41.9731
lhand -7.57967 29.5113
lfingers 7.12502
lthumb 18.3132 58.6692
rfemur 189.309 -173.591 -167.603
rtibia 42.0971
rfoot 47.0002 -31.2266
rtoes 22.735
lfemur -72.0575 33.16 -13.5984
ltibia 39.465
lfoot -46.2624 38.3817
ltoes 30.3849
444
root 3.61177 18.1 -4.09754 73.6949 -36.2582 -46.4616
lowerback -6.52558 8.89012 9.82106
upperback -14.3355 11.8764 1.25036
thorax -10.3339 4.88644 -4.05625
lowerneck -11.2363 6.76556 4.62996
upperneck 27.2671 7.25496 3.86803
head 10.6471 4.12844 1.47895
rclavicle -5.56597e-014 -5.08889e-014
rhumerus 67.5694 -54.5921 -60.8919
rradius 13.1412
rwrist 47.2805
rhand -2.3814 2.58611
rfingers 7.12502
rthumb 23.3075 -26.023
lclavicle -5.56597e-014 -5.08889e-014
lhumerus -19.8777 18.1459 6.64477
lradius 19.4242
lwrist -42.1955
lhand -7.59747 29.7429
lfingers 7.12502
lthumb 18.2961 58.9024
rfemur 189.247 -174.349 -166.962
rtibia 41.2638
rfoot 46.4675 -32.0683
rtoes 24.0871
lfemur -72.9461 33.5087 -15.6783
ltibia 39.83
lfoot -46.5366 37.1699
ltoes 31.2392
445
root 3.63959 17.9948 -4.11373 72.6112 -36.8526 -45.7668
lowerback -5.87207 8.83988 9.75767
upperback -13.9118 11.8824 1.1444
thorax -10.1879 4.91307 -4.20441
lowerneck -11.2772 6.4792 4.40382
upperneck 27.7175 6.95263 3.61218
head 10.8206 3.93748 1.40265
rclavicle -4.85035e-014 -2.22639e-014
rhumerus 69.0125 -53.968 -62.613
rradius 13.319
rwrist 46.8871
rhand -2.3102 2.26195
rfingers 7.12502
rthumb 23.3758 -26.3385
lclavicle -4.85035e-014 -2.22639e-014
lhumerus -19.8248 19.6797 7.73413
lradius 19.3863
lwrist -43.1841
lhand -7.57597 29.6578
lfingers 7.12502
lthumb 18.3168 58.8154
rfemur 189.358 -175.467 -166.7
rtibia 40.2463
rfoot 45.2248 -34.3061
rtoes 27.5395
lfemur -72.678 32.8579 -16.2951
ltibia 40.1736
lfoot -46.1089 39.398
ltoes 28.1016
446
root 3.67486 17.8671 -4.14209 71.6721 -36.8572 -45.2497
lowerback -5.30582 8.82745 10.3052
upperback -13.4636 11.9315 1.17159
thorax -9.89286 4.91759 -4.50169
lowerneck -12.0451 6.19688 4.5654
upperneck 28.4826 6.57364 3.17966
head 11.2873 3.7324 1.22707
rclavicle -4.85035e-014 -1.59028e-014
rhumerus 69.4667 -53.1869 -63.0218
rradius 13.5625
rwrist 45.6353
rhand -2.16623 1.93382
rfingers 7.12502
rthumb 23.514 -26.649
lclavicle -4.85035e-014 -1.59028e-014
lhumerus -19.467 21.3446 8.96446
lradius 19.0701
lwrist -44.38
lhand -7.96347 29.4804
lfingers 7.12502
lthumb 17.944 58.6726
rfemur 189.452 -176.705 -165.736
rtibia 39.1249
rfoot 43.0725 -36.8806
rtoes 31.2666
lfemur -72.4751 32.4825 -16.9114
ltibia 40.5926
lfoot -47.8423 36.9751
ltoes 30.3639
447
root 3.707 17.7371 -4.16709 70.9326 -36.642 -44.9041
lowerback -4.86345 8.80292 11.0868
upperback -13.0634 11.9526 1.26433
thorax -9.5684 4.89108 -4.8327
lowerneck -12.3018 5.96008 4.62293
upperneck 28.9118 6.29833 2.8218
head 11.5185 3.57035 1.07274
rclavicle -1.43125e-014 -1.09729e-013
rhumerus 68.8251 -52.1446 -62.1152
rradius 13.6965
rwrist 43.5938
rhand -2.22059 2.25545
rfingers 7.12502
rthumb 23.4618 -26.334
lclavicle -1.43125e-014 -1.09729e-013
lhumerus -19.3195 22.3174 10.188
lradius 18.9855
lwrist -44.7405
lhand -8.40599 29.2434
lfingers 7.12502
lthumb 17.5182 58.4741
rfemur 189.433 -178.015 -164.444
rtibia 37.9546
rfoot 41.7412 -37.7582
rtoes 32.5437
lfemur -72.2187 32.0743 -16.9481
ltibia 41.0521
lfoot -49.0327 35.3075
ltoes 31.2887
